<?xml version="1.0" encoding="UTF-8" standalone="no"?>
<!DOCTYPE svg PUBLIC "-//W3C//DTD SVG 1.1//EN" "http://www.w3.org/Graphics/SVG/1.1/DTD/svg11.dtd">
<svg width="100%" height="100%" viewBox="0 0 600 484" version="1.1" xmlns="http://www.w3.org/2000/svg" xmlns:xlink="http://www.w3.org/1999/xlink" xml:space="preserve" xmlns:serif="http://www.serif.com/" style="fill-rule:evenodd;clip-rule:evenodd;stroke-linecap:round;stroke-linejoin:round;stroke-miterlimit:1.5;">
    <g transform="matrix(1,0,0,1,-413.618,-247.477)">
        <g>
            <path d="M443.774,563.215L448.882,564.237L448.882,560.562L449.201,555.449L448.083,547.62L448.242,541.228L447.763,533.079L447.923,527.487L449.041,518.699L450,513.586L455.048,517.823L458.627,520.38L465.018,523.32L470.515,524.853L479.207,525.109L491.606,524.087L499.275,522.936L509.118,519.74L520.878,513.733L533.277,507.597L545.421,501.589L557.692,496.987L569.963,492.13L582.107,487.912L593.228,485.1L608.567,481.265L628.891,477.813L645.509,475.129L665.705,472.573L687.18,470.272L704.948,468.61L730.257,466.693L747.258,465.67L770.651,465.031L793.659,464.647L804.524,464.647L822.165,464.903L842.872,465.542L859.234,466.948L876.235,468.993L889.657,472.189L901.289,475.257L914.455,479.603L925.576,483.31L935.546,487.4L944.111,490.724L951.908,493.28L958.555,495.07L964.946,494.942L970.315,494.942L977.985,494.047L981.692,493.408L985.526,492.258L988.594,491.363L990.384,489.446L995.367,485.445L1002.39,499.775L1001.78,511.356L1001.17,539.394L997.511,566.213L988.368,594.251L979.225,616.194L969.473,637.528L956.063,660.69L932.901,683.242L916.444,696.042L891.454,705.794L865.244,710.061L834.768,715.547L807.339,721.032L774.425,725.299L734.197,728.956L693.968,730.785L684.394,730.924L670.589,730.617L660.056,729.901C660.056,729.901 642.263,729.287 641.24,728.776C640.217,728.265 619.254,727.856 619.254,727.856L600.438,726.935L579.167,726.731L571.805,726.629L565.362,725.095L551.25,719.675L545.012,716.403L538.979,713.641L529.469,708.426L518.015,700.45L511.266,694.416L502.369,685.622L494.495,677.032L488.462,668.544L482.326,659.443L476.191,649.933L471.589,640.934L465.555,629.276L459.726,616.493L455.125,603.609L449.705,590.621L446.637,579.27L444.387,572.521L443.978,568.431L443.774,563.215ZM537.602,514.149L531.61,517.644L524.121,524.135L516.631,533.123L510.889,539.614L505.646,546.854L502.4,554.843L499.904,562.333L498.406,569.823L497.906,578.811L497.906,585.302L499.904,592.542L502.151,600.781L505.396,608.52L509.141,617.258L516.381,625.996L522.373,633.736L528.864,640.976L541.347,650.463L554.329,658.951L566.812,665.692L578.796,670.186L594.774,675.179L624.234,681.171L643.458,682.669L661.933,682.919L681.406,683.418L696.635,682.919L719.354,681.92L746.068,681.421L765.541,679.923L788.76,677.926L812.228,675.179L829.704,672.683L848.428,668.938L863.658,664.694L878.887,658.951L893.118,652.46L905.351,645.22L917.335,638.979L927.82,629.991L936.059,622.251L944.547,611.017L950.29,602.528L954.783,591.294L958.528,582.306L961.275,571.82L962.523,561.335L963.272,553.096L963.022,544.857L959.527,532.624L952.786,519.891L945.546,509.405L936.059,499.169L924.325,492.179L912.591,486.187L898.111,481.194L880.884,477.199L865.156,475.701L849.177,473.704L820.716,472.955L802.241,472.955L767.039,473.704L746.068,475.452L721.102,476.45L694.388,478.947L663.431,481.443L647.952,483.441L619.491,486.936L597.77,490.931L581.792,494.426L571.057,498.42L559.822,502.415L548.587,507.907L537.602,514.149Z" style="fill:white;"/>
            <path d="M436.35,516.424L436.432,517.651L436.186,518.715L436.105,519.369L434.959,520.924L433.732,521.578L431.441,522.069L430.214,521.823L429.233,520.515L428.578,519.369L428.415,517.978L428.742,516.67L429.151,515.77L430.623,514.706L431.932,513.643L433.159,513.724L434.632,514.788L436.35,516.424Z" style="fill:white;"/>
            <path d="M426.942,478.301L431.114,478.956L433.405,480.346L435.777,483.128L436.841,485.746L436.595,488.282L435.859,490.818L434.468,492.945L432.26,494.908L428.578,496.136L424.733,495.154L423.097,493.763L420.888,491.718L419.825,489.754L418.597,487.218L419.007,485.091L420.315,482.555L421.706,480.265L423.833,479.038L425.633,478.301L426.942,478.301Z" style="fill:white;"/>
            <path d="M461.158,420.459L459.427,422.669L458.948,427.143L458.948,432.256L460.066,435.292L460.066,437.849L457.51,446.797L455.273,453.667L453.835,460.538L452.876,468.687L451.118,476.037L451.278,478.913L449.201,489.618L448.242,496.329L446.964,502.88L446.485,506.555L448.402,511.029L450,513.586L449.041,518.699L447.923,527.487L447.763,533.079L448.242,541.228L448.083,547.62L449.201,555.449L448.882,560.562L448.882,564.237L443.774,563.215L442.035,562.5L439.581,561.477L437.127,558.818L420.663,537.65L418.208,533.253L416.47,530.799L416.777,502.677L417.39,498.28L418.106,495.621L416.675,494.394L415.243,491.939L414.118,488.872L414.323,485.599L414.629,482.02L415.55,477.418L417.084,474.248L418.822,472.101L419.129,470.567L419.538,465.761L420.049,459.523L422.81,445.308L424.958,440.707L453.489,417.902L458.09,417.391L460.136,417.8L461.158,420.459ZM426.942,478.301L425.633,478.301L423.833,479.038L421.706,480.265L420.315,482.555L419.007,485.091L418.597,487.218L419.825,489.754L420.888,491.718L423.097,493.763L424.733,495.154L428.578,496.136L432.26,494.908L434.468,492.945L435.859,490.818L436.595,488.282L436.841,485.746L435.777,483.128L433.405,480.346L431.114,478.956L426.942,478.301ZM436.35,516.424L434.632,514.788L433.159,513.724L431.932,513.643L430.623,514.706L429.151,515.77L428.742,516.67L428.415,517.978L428.578,519.369L429.233,520.515L430.214,521.823L431.441,522.069L433.732,521.578L434.959,520.924L436.105,519.369L436.186,518.715L436.432,517.651L436.35,516.424Z" style="fill:white;"/>
            <path d="M493.769,425.263L492.171,486.38L491.972,492.372L491.572,495.568L489.974,498.164L486.18,500.561L481.386,502.358L476.393,502.159L473.197,500.161L471.4,497.165L469.003,493.371L466.806,488.377L465.008,483.384L465.408,478.191L470.8,438.645L472.199,433.851L475.194,430.856L477.791,428.059L481.186,426.062L485.181,424.065L487.178,423.665L489.775,423.266L492.171,423.865L493.769,425.263ZM479.204,469.157L475.931,469.975L473.641,470.793L471.35,472.675L470.205,474.475L469.223,477.256L468.732,479.138L468.65,480.774L469.059,483.31L469.796,485.601L471.023,487.401L472.577,489.037L474.541,490.591L477.077,491.573L480.267,491.573L482.721,490.918L485.421,489.282L486.566,488.055L488.039,486.664L489.021,484.455L489.512,482.983L489.593,480.774L489.593,478.892L489.266,477.093L488.939,476.029L488.121,475.047L487.057,473.82L485.912,472.43L484.194,471.121L482.64,470.057L481.003,469.484L479.204,469.157Z" style="fill:white;"/>
            <path d="M966.403,460.27L968.174,461.304L970.137,462.04L972.509,461.876L975.373,460.649L977.582,458.931L979.545,456.804L980.281,454.595L980.69,452.223L980.445,449.278L979.872,446.66L978.072,444.696L976.518,443.224L975.046,442.242L972.673,441.26L970.955,441.015L968.01,441.424L966.537,442.079L965.231,443.369L959.449,399.425L960.574,397.482L962.006,396.97L964.664,397.584L967.528,399.118L969.88,401.061L972.027,403.617L973.459,405.356L974.584,408.321L976.22,412.719L977.038,415.684L983.787,444.01L985.219,452.6L985.321,455.464L985.832,458.736L984.912,464.258L982.867,469.473L980.31,473.257L976.015,474.484L972.334,474.177L968.959,472.234L966.71,467.837L966.301,464.667L966.403,460.27Z" style="fill:white;"/>
            <path d="M1010.18,463.205L1009.02,459.258L1006.57,454.554L1004.42,447.6L999.818,435.124L997.262,426.739L994.092,417.74L991.637,410.786L987.445,401.072L984.172,394.425L979.571,386.551L974.764,377.04L967.708,366.098L959.221,353.214L954.926,346.669L950.222,341.863L947.358,336.341L942.859,330L939.28,325.501L934.985,319.672L929.463,314.048L924.043,308.73L918.214,303.413L912.897,298.709L906.454,293.902L898.887,289.607L890.808,285.415L882.321,281.12L877.719,278.665L868.311,274.78L859.005,271.303L847.654,267.826L839.678,265.576L832.213,263.633C832.213,263.633 824.441,261.997 823.623,261.588C822.805,261.179 817.692,260.463 817.692,260.463L810.943,258.725L805.727,257.497L801.023,256.27L797.137,254.225L794.172,253.305L793.149,251.464L793.034,250.055L795.75,248.776L797.348,247.977L800.064,248.137L811.409,249.895L823.073,251.812L838.253,255.967L850.236,259.642L864.936,264.755L876.92,269.708L886.667,274.022L896.573,279.455L906.959,285.367L919.263,293.516L929.009,301.345L938.436,309.494L944.988,315.885L948.982,320.519L952.018,324.194L955.533,328.668L959.658,332.967L963.127,337.81L966.53,342.915L970.784,348.936L974.515,355.153L978.049,360.455L981.387,366.934L984.659,372.104L990.046,383.473L993.881,391.303L997.716,401.529L1003.79,417.347L1006.66,430.769L1012.26,449.943L1012.1,459.051L1010.18,463.205Z" style="fill:white;"/>
            <path d="M995.367,485.445L998.059,476.506L999.183,471.598C999.183,471.598 997.538,467.573 997.407,466.984C997.276,466.395 995.575,459.916 995.575,459.916L993.807,451.342L992.499,444.012L988.244,428.828L985.954,421.236L985.038,416.655L983.467,408.213L981.765,404.482L978.624,400.948L972.668,393.552L968.872,386.942L961.215,373.46L956.3,364.551L951.8,358.579L947.383,353.425L941.574,347.617L936.502,343.608L930.857,338.7L926.276,334.609L921.695,331.991L916.459,329.701L911.632,327.656L905.885,325.579L904,323.317L900.565,319.924L895.539,315.819L890.722,311.379L885.486,307.861L877.863,302.29L871.622,298.73L863.705,294.038L856.71,290.646L847.244,286.038L838.239,281.891L827.683,277.661L821.568,275.441L816.709,273.975L806.824,271.043L797.609,268.697L790.237,266.854L781.399,264.886L775.996,263.461L771.472,262.289L767.577,260.655L763.304,258.435L761.545,256.592L760.414,254.498L760.289,252.262L760.624,251.357L761.562,249.681L763.774,248.643L766.388,248.106L772.102,248.297L778.494,248.936L787.122,249.575L793.034,250.055L793.149,251.464L794.172,253.305L797.137,254.225L801.023,256.27L805.727,257.497L810.943,258.725L817.692,260.463C817.692,260.463 822.805,261.179 823.623,261.588C824.441,261.997 832.213,263.633 832.213,263.633L839.678,265.576L847.654,267.826L859.005,271.303L868.311,274.78L877.719,278.665L882.321,281.12L890.808,285.415L898.887,289.607L906.454,293.902L912.897,298.709L918.214,303.413L924.043,308.73L929.463,314.048L934.985,319.672L939.28,325.501L942.859,330L947.358,336.341L950.222,341.863L954.926,346.669L959.221,353.214L967.708,366.098L974.764,377.04L979.571,386.551L984.172,394.425L987.445,401.072L991.637,410.786L994.092,417.74L997.262,426.739L999.818,435.124L1004.42,447.6L1006.57,454.554L1009.02,459.258L1010.18,463.205L1009.7,477.223L1006.04,485.147L995.367,485.445Z" style="fill:white;"/>
            <path d="M760.289,252.262L760.414,254.498L761.545,256.592L763.304,258.435L767.577,260.655L771.472,262.289L775.996,263.461L781.399,264.886L790.237,266.854L797.609,268.697L806.824,271.043L816.709,273.975L821.568,275.441L827.683,277.661L838.239,281.891L847.244,286.038L856.71,290.646L863.705,294.038L871.622,298.73L877.863,302.29L885.486,307.861L890.722,311.379L895.539,315.819L900.565,319.924L904,323.317L905.885,325.579L901.286,324.527L893.432,321.975L885.644,320.012L877.659,317.786L862.381,314.138L848.799,311.342L836.616,308.146L828.027,306.349L817.042,303.752L811.05,301.755L807.256,298.36L799.866,293.566L795.072,289.771L783.288,282.98L773.701,279.186L764.314,274.991L752.131,271.796L742.743,269.599L731.559,269.199L721.572,269.199L710.787,268.999L699.402,270.797L687.618,272.994L676.234,276.19L666.048,280.184L656.661,285.177L647.074,289.571L640.083,296.163L634.291,301.955L626.701,310.143L620.31,314.138L611.123,316.934L598.739,322.327L583.56,327.919L570.378,332.114L555.598,336.508L544.214,341.101L529.633,345.695L517.849,350.688L509.261,355.282L499.674,360.874L494.082,365.868L484.883,373.214L489.587,365.238L495.825,356.853L502.574,347.342L508.812,339.366L520.163,327.81L538.979,310.426L548.694,303.165L562.908,293.655L578.043,285.27L601.731,273.583L615.92,267.319L626.913,263.996L643.658,259.266L656.185,256.71L664.366,254.664L676.637,253.003L685.329,251.596L695.3,251.085L704.503,250.702L713.068,250.318L725.595,249.935L734.543,250.318L745.536,250.957L754.611,251.852L760.289,252.262Z" style="fill:white;"/>
            <path d="M484.883,373.214L494.082,365.868L499.674,360.874L509.261,355.282L517.849,350.688L529.633,345.695L544.214,341.101L555.598,336.508L570.378,332.114L583.56,327.919L598.739,322.327L611.123,316.934L620.31,314.138L626.701,310.143L634.291,301.955L640.083,296.163L647.074,289.571L656.661,285.177L666.048,280.184L676.234,276.19L687.618,272.994L699.402,270.797L710.787,268.999L721.572,269.199L731.559,269.199L742.743,269.599L752.131,271.796L764.314,274.991L773.701,279.186L783.288,282.98L795.072,289.771L799.866,293.566L807.256,298.36L811.05,301.755L817.042,303.752L828.027,306.349L836.616,308.146L848.799,311.342L862.381,314.138L877.659,317.786L885.644,320.012L893.432,321.975L901.286,324.527L905.885,325.579L911.632,327.656L916.459,329.701L921.695,331.991L926.276,334.609L930.857,338.7L936.502,343.608L941.574,347.617L947.383,353.425L951.8,358.579L956.3,364.551L961.215,373.46L968.872,386.942L972.668,393.552L978.624,400.948L981.765,404.482L983.467,408.213L985.038,416.655L985.954,421.236L988.244,428.828L992.499,444.012L993.807,451.342L995.575,459.916C995.575,459.916 997.276,466.395 997.407,466.984C997.538,467.573 999.183,471.598 999.183,471.598L998.059,476.506L995.367,485.445L990.384,489.446L988.594,491.363L985.526,492.258L981.692,493.408L977.985,494.047L970.315,494.942L964.946,494.942L958.555,495.07L951.908,493.28L944.111,490.724L935.546,487.4L925.576,483.31L914.455,479.603L901.289,475.257L889.657,472.189L876.235,468.993L859.234,466.948L842.872,465.542L822.165,464.903L804.524,464.647L793.659,464.647L770.651,465.031L747.258,465.67L730.257,466.693L704.948,468.61L687.18,470.272L665.705,472.573L645.509,475.129L628.891,477.813L608.567,481.265L593.228,485.1L582.107,487.912L569.963,492.13L557.692,496.987L545.421,501.589L533.277,507.597L520.878,513.733L509.118,519.74L499.275,522.936L491.606,524.087L479.207,525.109L470.515,524.853L465.018,523.32L458.627,520.38L455.048,517.823L450,513.586L448.402,511.029L446.485,506.555L446.964,502.88L448.242,496.329L449.201,489.618L451.278,478.913L451.118,476.037L452.876,468.687L453.835,460.538L455.273,453.667L457.51,446.797L460.066,437.849L460.066,435.292L458.948,432.256L458.948,427.143L459.427,422.669L461.158,420.459L463.817,415.959C463.817,415.959 467.703,406.756 468.01,405.631C468.316,404.506 470.975,399.393 470.975,399.393L474.248,393.053L480.588,380.373L484.883,373.214ZM966.403,460.27L966.301,464.667L966.71,467.837L968.959,472.234L972.334,474.177L976.015,474.484L980.31,473.257L982.867,469.473L984.912,464.258L985.832,458.736L985.321,455.464L985.219,452.6L983.787,444.01L977.038,415.684L976.22,412.719L974.584,408.321L973.459,405.356L972.027,403.617L969.88,401.061L967.528,399.118L964.664,397.584L962.006,396.97L960.574,397.482L959.449,399.425L966.607,453.828L966.403,460.27ZM529.473,393.352L522.882,395.149L519.486,397.546L517.889,400.741L515.292,408.131L514.893,417.718L514.294,454.668L514.893,461.259L517.489,463.057L521.683,466.252L525.279,466.252L551.243,463.456L582.001,461.858L620.948,459.661L656.899,458.063L699.641,454.668L740.785,452.671L777.735,449.875L813.686,448.876L855.029,446.08L888.983,444.682L918.343,442.485L934.122,441.686L940.912,440.487L943.908,439.089L946.705,435.095L947.503,431.3L947.104,426.906L945.706,413.125L944.308,404.536L942.91,392.353L941.911,383.765L940.513,378.771L938.516,374.178L935.12,372.38L929.927,370.383L921.938,368.386L908.357,367.387L880.994,365.789L862.02,365.589L851.235,365.19L833.659,365.19L820.876,364.79L806.296,364.99L793.114,364.99L778.334,365.39L770.145,365.789L755.565,366.189L740.985,366.987L731.598,367.187L720.213,367.786L695.646,369.384L685.061,370.183L669.083,371.781L657.698,372.78L645.715,373.379L634.33,374.977L622.546,376.175L607.766,378.372L590.789,380.17L577.208,382.766L564.825,385.362L555.837,386.561L546.25,388.358L539.26,389.756L532.868,391.554L529.473,393.352ZM493.769,425.263L492.171,423.865L489.775,423.266L487.178,423.665L485.181,424.065L481.186,426.062L477.791,428.059L475.194,430.856L472.199,433.851L470.8,438.645L465.408,478.191L465.008,483.384L466.806,488.377L469.003,493.371L471.4,497.165L473.197,500.161L476.393,502.159L481.386,502.358L486.18,500.561L489.974,498.164L491.572,495.568L491.972,492.372L492.171,486.38L493.769,425.263Z" style="fill:white;"/>
            <path d="M537.602,514.149L548.587,507.907L559.822,502.415L571.057,498.42L581.792,494.426L597.77,490.931L619.491,486.936L647.952,483.441L663.431,481.443L694.388,478.947L721.102,476.45L746.068,475.452L767.039,473.704L802.241,472.955L820.716,472.955L849.177,473.704L865.156,475.701L880.884,477.199L898.111,481.194L912.591,486.187L924.325,492.179L936.059,499.169L945.546,509.405L952.786,519.891L959.527,532.624L963.022,544.857L963.272,553.096L962.523,561.335L961.275,571.82L958.528,582.306L954.783,591.294L950.29,602.528L944.547,611.017L936.059,622.251L927.82,629.991L917.335,638.979L905.351,645.22L893.118,652.46L878.887,658.951L863.658,664.694L848.428,668.938L829.704,672.683L812.228,675.179L788.76,677.926L765.541,679.923L746.068,681.421L719.354,681.92L696.635,682.919L681.406,683.418L661.933,682.919L643.458,682.669L624.234,681.171L594.774,675.179L578.796,670.186L566.812,665.692L554.329,658.951L541.347,650.463L528.864,640.976L522.373,633.736L516.381,625.996L509.141,617.258L505.396,608.52L502.151,600.781L499.904,592.542L497.906,585.302L497.906,578.811L498.406,569.823L499.904,562.333L502.4,554.843L505.646,546.854L510.889,539.614L516.631,533.123L524.121,524.135L531.61,517.644L537.602,514.149Z"/>
            <path d="M537.602,514.149L548.587,507.907L559.822,502.415L571.057,498.42L581.792,494.426L597.77,490.931L619.491,486.936L647.952,483.441L663.431,481.443L694.388,478.947L721.102,476.45L746.068,475.452L767.039,473.704L802.241,472.955L820.716,472.955L849.177,473.704L865.156,475.701L880.884,477.199L898.111,481.194L912.591,486.187L924.325,492.179L936.059,499.169L945.546,509.405L952.786,519.891L959.527,532.624L963.022,544.857L963.272,553.096L962.523,561.335L961.275,571.82L958.528,582.306L954.783,591.294L950.29,602.528L944.547,611.017L936.059,622.251L927.82,629.991L917.335,638.979L905.351,645.22L893.118,652.46L878.887,658.951L863.658,664.694L848.428,668.938L829.704,672.683L812.228,675.179L788.76,677.926L765.541,679.923L746.068,681.421L719.354,681.92L696.635,682.919L681.406,683.418L661.933,682.919L643.458,682.669L624.234,681.171L594.774,675.179L578.796,670.186L566.812,665.692L554.329,658.951L541.347,650.463L528.864,640.976L522.373,633.736L516.381,625.996L509.141,617.258L505.396,608.52L502.151,600.781L499.904,592.542L497.906,585.302L497.906,578.811L498.406,569.823L499.904,562.333L502.4,554.843L505.646,546.854L510.889,539.614L516.631,533.123L524.121,524.135L531.61,517.644L537.602,514.149Z" style="fill:none;stroke:black;stroke-width:1px;"/>
            <path d="M426.942,478.301L431.114,478.956L433.405,480.346L435.777,483.128L436.841,485.746L436.595,488.282L435.859,490.818L434.468,492.945L432.26,494.908L428.578,496.136L424.733,495.154L423.097,493.763L420.888,491.718L419.825,489.754L418.597,487.218L419.007,485.091L420.315,482.555L421.706,480.265L423.833,479.038L425.633,478.301L426.942,478.301Z" style="fill:none;stroke:black;stroke-width:1px;"/>
            <path d="M436.35,516.424L434.632,514.788L433.159,513.724L431.932,513.643L430.623,514.706L429.151,515.77L428.742,516.67L428.415,517.978L428.578,519.369L429.233,520.515L430.214,521.823L431.441,522.069L433.732,521.578L434.959,520.924L436.105,519.369L436.186,518.715L436.432,517.651L436.35,516.424Z" style="fill:none;stroke:black;stroke-width:1px;"/>
            <path d="M479.204,469.157L481.003,469.484L482.64,470.057L484.194,471.121L485.912,472.43L487.057,473.82L488.121,475.047L488.939,476.029L489.266,477.093L489.593,478.892L489.593,480.774L489.512,482.983L489.021,484.455L488.039,486.664L486.566,488.055L485.421,489.282L482.721,490.918L480.267,491.573L477.077,491.573L474.541,490.591L472.577,489.037L471.023,487.401L469.796,485.601L469.059,483.31L468.65,480.774L468.732,479.138L469.223,477.256L470.205,474.475L471.35,472.675L473.641,470.793L475.931,469.975L479.204,469.157Z"/>
            <path d="M479.204,469.157L475.931,469.975L473.641,470.793L471.35,472.675L470.205,474.475L469.223,477.256L468.732,479.138L468.65,480.774L469.059,483.31L469.796,485.601L471.023,487.401L472.577,489.037L474.541,490.591L477.077,491.573L480.267,491.573L482.721,490.918L485.421,489.282L486.566,488.055L488.039,486.664L489.021,484.455L489.512,482.983L489.593,480.774L489.593,478.892L489.266,477.093L488.939,476.029L488.121,475.047L487.057,473.82L485.912,472.43L484.194,471.121L482.64,470.057L481.003,469.484L479.204,469.157Z" style="fill:none;stroke:black;stroke-width:1px;"/>
            <path d="M965.231,443.369L966.537,442.079L968.01,441.424L970.955,441.015L972.673,441.26L975.046,442.242L976.518,443.224L978.072,444.696L979.872,446.66L980.445,449.278L980.69,452.223L980.281,454.595L979.545,456.804L977.582,458.931L975.373,460.649L972.509,461.876L970.137,462.04L968.174,461.304L966.403,460.27L966.607,453.828L965.231,443.369Z"/>
            <path d="M965.231,443.369L966.537,442.079L968.01,441.424L970.955,441.015L972.673,441.26L975.046,442.242L976.518,443.224L978.072,444.696L979.872,446.66L980.445,449.278L980.69,452.223L980.281,454.595L979.545,456.804L977.582,458.931L975.373,460.649L972.509,461.876L970.137,462.04L968.174,461.304L966.403,460.27" style="fill:none;stroke:black;stroke-width:1px;"/>
        </g>
        <path d="M990.046,383.473L984.659,372.104L981.387,366.934L978.049,360.455L974.515,355.153L970.784,348.936L966.53,342.915L963.127,337.81L959.658,332.967L955.533,328.668L955.214,323.874L955.533,320.679L957.131,319.241L951.379,300.386L948.183,286.645L943.869,271.306L941.952,262.518L940.514,257.564L939.555,253.41L940.833,251.493L943.39,249.735L946.905,248.457L948.183,251.333L951.698,259.002L953.456,264.914L957.131,274.022L959.048,281.212L962.564,290.959L967.357,306.778L968.156,309.813L970.713,309.813L972.151,312.689L975.027,320.679L981.099,336.178L984.933,346.404L987.01,353.434L989.247,365.578L989.727,374.366L990.046,383.473Z" style="fill:rgb(76,76,76);"/>
        <path d="M614.462,520.705C616.734,519.549 619.007,518.391 621.333,517.349C624.122,516.1 626.915,514.838 629.801,513.834C643.149,509.192 656.908,507.248 671.025,508.242C674.933,508.517 678.825,509.036 682.689,509.68C685.863,510.209 688.993,510.984 692.116,511.757" style="fill:none;stroke:white;stroke-width:6.79px;"/>
        <g transform="matrix(0.996237,0.0866733,-0.0866733,0.996237,198.352,-64.9132)">
            <path d="M614.462,520.705C616.734,519.549 619.007,518.391 621.333,517.349C624.122,516.1 626.915,514.838 629.801,513.834C643.149,509.192 656.908,507.248 671.025,508.242C674.933,508.517 678.825,509.036 682.689,509.68C685.863,510.209 688.993,510.984 692.116,511.757" style="fill:none;stroke:white;stroke-width:6.79px;"/>
        </g>
        <g transform="matrix(0.955865,0,0,0.932636,36.9974,35.1494)">
            <circle cx="650.479" cy="564.779" r="42.991" style="fill:none;stroke:white;stroke-width:7.2px;"/>
        </g>
        <g transform="matrix(0.955865,0,0,0.932636,181.8,26.5611)">
            <circle cx="650.479" cy="564.779" r="42.991" style="fill:none;stroke:white;stroke-width:7.2px;"/>
        </g>
        <g transform="matrix(1,0,0,1.0186,0,-10.867)">
            <ellipse cx="658.818" cy="562.632" rx="22.469" ry="21.471" style="fill:none;stroke:rgb(61,19,180);stroke-width:6.73px;"/>
        </g>
        <g transform="matrix(1,0,0,1.0186,144.203,-20.0545)">
            <ellipse cx="658.818" cy="562.632" rx="22.469" ry="21.471" style="fill:none;stroke:rgb(61,19,180);stroke-width:6.73px;"/>
        </g>
        <g transform="matrix(1,0,0,1,1.55436,-1.30893)">
            <path d="M645.775,560.074C646.201,559.342 646.63,558.603 647.166,557.947C647.971,556.961 648.879,556.062 649.784,555.166" style="fill:none;stroke:white;stroke-width:6.79px;"/>
        </g>
        <g transform="matrix(1,0,0,1,147.356,-11.495)">
            <path d="M645.775,560.074C646.201,559.342 646.63,558.603 647.166,557.947C647.971,556.961 648.879,556.062 649.784,555.166" style="fill:none;stroke:white;stroke-width:6.79px;"/>
        </g>
        <path d="M1009.7,477.223L1010.18,463.205L1012.1,459.051L1012.26,449.943L1006.66,430.769L1003.79,417.347L997.716,401.529L993.881,391.303L990.046,383.473L989.727,374.366L989.247,365.578L987.01,353.434L984.933,346.404L981.099,336.178L975.027,320.679L972.151,312.689L970.713,309.813L968.156,309.813L967.357,306.778L962.564,290.959L959.048,281.212L957.131,274.022L953.456,264.914L951.698,259.002L948.183,251.333L946.905,248.457L943.39,249.735L940.833,251.493L939.555,253.41L940.514,257.564L941.952,262.518L943.869,271.306L948.183,286.645L951.379,300.386L957.131,319.241L955.533,320.679L955.214,323.874L955.533,328.668L952.018,324.194L948.982,320.519L944.988,315.885L938.436,309.494L929.009,301.345L919.263,293.516L906.959,285.367L896.573,279.455L886.667,274.022L876.92,269.708L864.936,264.755L850.236,259.642L838.253,255.967L823.073,251.812L811.409,249.895L800.064,248.137L797.348,247.977L795.75,248.776L793.034,250.055L787.122,249.575L778.494,248.936L772.102,248.297L766.388,248.106L763.774,248.643L761.562,249.681L760.624,251.357L760.289,252.262L754.611,251.852L745.536,250.957L734.543,250.318L725.595,249.935L713.068,250.318L704.503,250.702L695.3,251.085L685.329,251.596L676.637,253.003L664.366,254.664L656.185,256.71L643.658,259.266L626.913,263.996L615.92,267.319L601.731,273.583L578.043,285.27L562.908,293.655L548.694,303.165L538.979,310.426L520.163,327.81L508.812,339.366L502.574,347.342L495.825,356.853L489.587,365.238L484.883,373.214L480.588,380.373L474.248,393.053L470.975,399.393C470.975,399.393 468.316,404.506 468.01,405.631C467.703,406.756 463.817,415.959 463.817,415.959L461.158,420.459L460.136,417.8L458.09,417.391L453.489,417.902L424.958,440.707L422.81,445.308L420.049,459.523L419.538,465.761L419.129,470.567L418.822,472.101L417.084,474.248L415.55,477.418L414.629,482.02L414.323,485.599L414.118,488.872L415.243,491.939L416.675,494.394L418.106,495.621L417.39,498.28L416.777,502.677L416.47,530.799L418.208,533.253L420.663,537.65L437.127,558.818L439.581,561.477L442.035,562.5L443.774,563.215L443.978,568.431L444.387,572.521L446.637,579.27L449.705,590.621L455.125,603.609L459.726,616.493L465.555,629.276L471.589,640.934L476.191,649.933L482.326,659.443L488.462,668.544L494.495,677.032L502.369,685.622L511.266,694.416L518.015,700.45L529.469,708.426L538.979,713.641L545.012,716.403L551.25,719.675L565.362,725.095L571.805,726.629L579.167,726.731L600.438,726.935L619.254,727.856C619.254,727.856 640.217,728.265 641.24,728.776C642.263,729.287 660.056,729.901 660.056,729.901L670.589,730.617L684.394,730.924L693.968,730.785L734.197,728.956L774.425,725.299L807.339,721.032L834.768,715.547L865.244,710.061L891.454,705.794L916.444,696.042L932.901,683.242L956.063,660.69L969.473,637.528L979.225,616.194L988.368,594.251L997.511,566.213L1001.17,539.394L1001.78,511.356L1002.39,499.775L995.367,485.445L1006.04,485.147L1009.7,477.223" style="fill:none;stroke:black;stroke-width:1px;"/>
        <path d="M793.034,250.055L793.149,251.464L794.172,253.305L797.137,254.225L801.023,256.27L805.727,257.497L810.943,258.725L817.692,260.463C817.692,260.463 822.805,261.179 823.623,261.588C824.441,261.997 832.213,263.633 832.213,263.633L839.678,265.576L847.654,267.826L859.005,271.303L868.311,274.78L877.719,278.665L882.321,281.12L890.808,285.415L898.887,289.607L906.454,293.902L912.897,298.709L918.214,303.413L924.043,308.73L929.463,314.048L934.985,319.672L939.28,325.501L942.859,330L947.358,336.341L950.222,341.863L954.926,346.669L959.221,353.214L967.708,366.098L974.764,377.04L979.571,386.551L984.172,394.425L987.445,401.072L991.637,410.786L994.092,417.74L997.262,426.739L999.818,435.124L1004.42,447.6L1006.57,454.554L1009.02,459.258L1010.18,463.205" style="fill:none;stroke:black;stroke-width:1px;"/>
        <path d="M484.883,373.214L494.082,365.868L499.674,360.874L509.261,355.282L517.849,350.688L529.633,345.695L544.214,341.101L555.598,336.508L570.378,332.114L583.56,327.919L598.739,322.327L611.123,316.934L620.31,314.138L626.701,310.143L634.291,301.955L640.083,296.163L647.074,289.571L656.661,285.177L666.048,280.184L676.234,276.19L687.618,272.994L699.402,270.797L710.787,268.999L721.572,269.199L731.559,269.199L742.743,269.599L752.131,271.796L764.314,274.991L773.701,279.186L783.288,282.98L795.072,289.771L799.866,293.566L807.256,298.36L811.05,301.755L817.042,303.752L828.027,306.349L836.616,308.146L848.799,311.342L862.381,314.138L877.659,317.786L885.644,320.012L893.432,321.975L901.286,324.527L905.885,325.579" style="fill:none;stroke:black;stroke-width:1px;"/>
        <path d="M760.289,252.262L760.414,254.498L761.545,256.592L763.304,258.435L767.577,260.655L771.472,262.289L775.996,263.461L781.399,264.886L790.237,266.854L797.609,268.697L806.824,271.043L816.709,273.975L821.568,275.441L827.683,277.661L838.239,281.891L847.244,286.038L856.71,290.646L863.705,294.038L871.622,298.73L877.863,302.29L885.486,307.861L890.722,311.379L895.539,315.819L900.565,319.924L904,323.317L905.885,325.579L911.632,327.656L916.459,329.701L921.695,331.991L926.276,334.609L930.857,338.7L936.502,343.608L941.574,347.617L947.383,353.425L951.8,358.579L956.3,364.551L961.215,373.46L968.872,386.942L972.668,393.552L978.624,400.948L981.765,404.482L983.467,408.213L985.038,416.655L985.954,421.236L988.244,428.828L992.499,444.012L993.807,451.342L995.575,459.916C995.575,459.916 997.276,466.395 997.407,466.984C997.538,467.573 999.183,471.598 999.183,471.598" style="fill:none;stroke:black;stroke-width:1px;"/>
        <path d="M955.533,328.668L959.658,332.967L963.127,337.81L966.53,342.915L970.784,348.936L974.515,355.153L978.049,360.455L981.387,366.934L984.659,372.104L990.046,383.473" style="fill:none;stroke:black;stroke-width:1px;"/>
        <path d="M657.308,321.754L657.308,314.963L658.307,309.97L661.103,305.976L666.695,300.583L673.286,296.189L679.678,292.594L689.065,290.397L700.05,288.2L711.235,286.802L719.823,286.402L729.809,286.203L739.197,286.802L748.983,287.601L755.974,289.598L763.563,291.795L768.956,294.391L775.947,297.987L778.543,300.783L780.74,306.974L783.137,310.769" style="fill:none;stroke:black;stroke-width:1px;"/>
        <path d="M461.158,420.459L459.427,422.669L458.948,427.143L458.948,432.256L460.066,435.292L460.066,437.849L457.51,446.797L455.273,453.667L453.835,460.538L452.876,468.687L451.118,476.037L451.278,478.913L449.201,489.618L448.242,496.329L446.964,502.88L446.485,506.555L448.402,511.029L450,513.586L449.041,518.699L447.923,527.487L447.763,533.079L448.242,541.228L448.083,547.62L449.201,555.449L448.882,560.562L448.882,564.237L443.774,563.215" style="fill:none;stroke:black;stroke-width:1px;"/>
        <path d="M450,513.586L455.048,517.823L458.627,520.38L465.018,523.32L470.515,524.853L479.207,525.109L491.606,524.087L499.275,522.936L509.118,519.74L520.878,513.733L533.277,507.597L545.421,501.589L557.692,496.987L569.963,492.13L582.107,487.912L593.228,485.1L608.567,481.265L628.891,477.813L645.509,475.129L665.705,472.573L687.18,470.272L704.948,468.61L730.257,466.693L747.258,465.67L770.651,465.031L793.659,464.647L804.524,464.647L822.165,464.903L842.872,465.542L859.234,466.948L876.235,468.993L889.657,472.189L901.289,475.257L914.455,479.603L925.576,483.31L935.546,487.4L944.111,490.724L951.908,493.28L958.555,495.07L964.946,494.942L970.315,494.942L977.985,494.047L981.692,493.408L985.526,492.258L988.594,491.363L990.384,489.446L995.367,485.445L998.059,476.506L999.183,471.598" style="fill:none;stroke:black;stroke-width:1px;"/>
        <path d="M493.769,425.263L492.171,486.38L491.972,492.372L491.572,495.568L489.974,498.164L486.18,500.561L481.386,502.358L476.393,502.159L473.197,500.161L471.4,497.165L469.003,493.371L466.806,488.377L465.008,483.384L465.408,478.191L470.8,438.645L472.199,433.851L475.194,430.856L477.791,428.059L481.186,426.062L485.181,424.065L487.178,423.665L489.775,423.266L492.171,423.865L493.769,425.263Z" style="fill:none;stroke:black;stroke-width:1px;"/>
        <path d="M959.449,399.425L966.607,453.828L966.403,460.27L966.301,464.667L966.71,467.837L968.959,472.234L972.334,474.177L976.015,474.484L980.31,473.257L982.867,469.473L984.912,464.258L985.832,458.736L985.321,455.464L985.219,452.6L983.787,444.01L977.038,415.684L976.22,412.719L974.584,408.321L973.459,405.356L972.027,403.617L969.88,401.061L967.528,399.118L964.664,397.584L962.006,396.97L960.574,397.482L959.449,399.425Z" style="fill:none;stroke:black;stroke-width:1px;"/>
        <path d="M529.473,393.352L532.868,391.554L539.26,389.756L546.25,388.358L555.837,386.561L564.825,385.362L577.208,382.766L590.789,380.17L607.766,378.372L622.546,376.175L634.33,374.977L645.715,373.379L657.698,372.78L669.083,371.781L685.061,370.183L695.646,369.384L720.213,367.786L731.598,367.187L740.985,366.987L755.565,366.189L770.145,365.789L778.334,365.39L793.114,364.99L806.296,364.99L820.876,364.79L833.659,365.19L851.235,365.19L862.02,365.589L880.994,365.789L908.357,367.387L921.938,368.386L929.927,370.383L935.12,372.38L938.516,374.178L940.513,378.771L941.911,383.765L942.91,392.353L944.308,404.536L945.706,413.125L947.104,426.906L947.503,431.3L946.705,435.095L943.908,439.089L940.912,440.487L934.122,441.686L918.343,442.485L888.983,444.682L855.029,446.08L813.686,448.876L777.735,449.875L740.785,452.671L699.641,454.668L656.899,458.063L620.948,459.661L582.001,461.858L551.243,463.456L525.279,466.252L521.683,466.252L517.489,463.057L514.893,461.259L514.294,454.668L514.893,417.718L515.292,408.131L517.889,400.741L519.486,397.546L522.882,395.149L529.473,393.352Z" style="fill:rgb(76,76,76);"/>
        <path d="M529.473,393.352L522.882,395.149L519.486,397.546L517.889,400.741L515.292,408.131L514.893,417.718L514.294,454.668L514.893,461.259L517.489,463.057L521.683,466.252L525.279,466.252L551.243,463.456L582.001,461.858L620.948,459.661L656.899,458.063L699.641,454.668L740.785,452.671L777.735,449.875L813.686,448.876L855.029,446.08L888.983,444.682L918.343,442.485L934.122,441.686L940.912,440.487L943.908,439.089L946.705,435.095L947.503,431.3L947.104,426.906L945.706,413.125L944.308,404.536L942.91,392.353L941.911,383.765L940.513,378.771L938.516,374.178L935.12,372.38L929.927,370.383L921.938,368.386L908.357,367.387L880.994,365.789L862.02,365.589L851.235,365.19L833.659,365.19L820.876,364.79L806.296,364.99L793.114,364.99L778.334,365.39L770.145,365.789L755.565,366.189L740.985,366.987L731.598,367.187L720.213,367.786L695.646,369.384L685.061,370.183L669.083,371.781L657.698,372.78L645.715,373.379L634.33,374.977L622.546,376.175L607.766,378.372L590.789,380.17L577.208,382.766L564.825,385.362L555.837,386.561L546.25,388.358L539.26,389.756L532.868,391.554L529.473,393.352" style="fill:none;stroke:black;stroke-width:1px;"/>
        <path d="M724.758,394.157L731.022,393.39L735.368,393.773L739.075,394.668L742.91,396.713L748.278,400.037L750.707,403.488L752.625,408.218L753.775,411.541L754.158,416.143L754.031,420.361L752.752,424.452L750.196,429.309L747.767,433.016L743.805,436.595L740.992,438.512L735.368,439.918L727.059,440.558L652.793,445.671L644.612,445.798L639.882,445.287L634.641,443.242L630.295,440.813L626.588,437.362L623.904,434.294L621.859,429.053L620.964,424.068L620.453,419.722L622.242,414.737L624.287,411.413L626.205,407.834L629.528,404.639L633.491,402.082L638.86,400.292L647.552,399.014L724.758,394.157Z" style="fill:rgb(29,29,29);"/>
        <path d="M678.307,407.221L680.991,407.348L683.292,408.755L685.848,410.288L687.51,412.078L689.044,414.762L689.939,418.469L689.555,422.815L688.277,426.139L685.72,428.951L683.036,429.974L680.352,430.613L676.389,431.252L672.81,429.974L670.381,428.568L668.208,426.011L667.186,423.582L666.163,419.875L666.802,417.319L667.569,413.74L668.975,410.8L671.532,408.755L674.6,407.604L678.307,407.221Z"/>
        <path d="M653.815,410.519L656.372,410.007L657.906,410.007L659.056,411.285L659.823,412.947L660.206,417.165L660.59,427.264L659.951,429.692L658.545,432.121L655.221,432.76L630.806,433.527L628.633,433.655L626.972,433.144L626.46,431.482L625.821,417.421L625.693,415.12L627.227,413.203L629.784,411.158L632.34,411.285L653.815,410.519Z"/>
        <path d="M600.512,413.331L606.008,415.504L608.437,419.594L609.587,422.918L609.971,426.113L609.332,429.948L606.903,433.016L602.685,434.422L598.211,434.933L594.504,434.805L590.797,431.738L589.135,427.008L588.368,422.534L589.007,419.211L590.925,416.015L593.098,414.353L597.06,413.331L600.512,413.331Z"/>
        <path d="M600.512,413.331L597.06,413.331L593.098,414.353L590.925,416.015L589.007,419.211L588.368,422.534L589.135,427.008L590.797,431.738L594.504,434.805L598.211,434.933L602.685,434.422L606.903,433.016L609.332,429.948L609.971,426.113L609.587,422.918L608.437,419.594L606.008,415.504L600.512,413.331Z" style="fill:none;stroke:black;stroke-width:1px;"/>
        <path d="M879.939,394.54L883.518,395.435L886.075,398.375L889.398,402.21L890.549,407.067L889.143,412.692L887.097,416.526L882.879,419.083L877.638,420.105L873.548,417.932L870.608,415.759L868.946,412.692L867.923,409.496L868.179,404.511L869.713,400.804L872.27,397.48L875.21,395.819L879.939,394.54Z"/>
        <path d="M879.939,394.54L875.21,395.819L872.27,397.48L869.713,400.804L868.179,404.511L867.923,409.496L868.946,412.692L870.608,415.759L873.548,417.932L877.638,420.105L882.879,419.083L887.097,416.526L889.143,412.692L890.549,407.067L889.398,402.21L886.075,398.375L883.518,395.435L879.939,394.54Z" style="fill:none;stroke:black;stroke-width:1px;"/>
        <path d="M724.758,394.157L647.552,399.014L638.86,400.292L633.491,402.082L629.528,404.639L626.205,407.834L624.287,411.413L622.242,414.737L620.453,419.722L620.964,424.068L621.859,429.053L623.904,434.294L626.588,437.362L630.295,440.813L634.641,443.242L639.882,445.287L644.612,445.798L652.793,445.671L727.059,440.558L735.368,439.918L740.992,438.512L743.805,436.595L747.767,433.016L750.196,429.309L752.752,424.452L754.031,420.361L754.158,416.143L753.775,411.541L752.625,408.218L750.707,403.488L748.278,400.037L742.91,396.713L739.075,394.668L735.368,393.773L731.022,393.39L724.758,394.157Z" style="fill:none;stroke:black;stroke-width:1px;"/>
        <path d="M733.195,404.255L737.797,407.195L740.737,410.646L742.398,415.248L741.887,418.955L738.819,423.812L735.751,427.136L729.744,429.053L724.631,427.647L721.563,425.602L718.878,421.256L717.728,417.805L718.239,413.075L719.901,408.985L722.458,406.172L725.653,404.511L733.195,404.255Z"/>
        <path d="M733.195,404.255L725.653,404.511L722.458,406.172L719.901,408.985L718.239,413.075L717.728,417.805L718.878,421.256L721.563,425.602L724.631,427.647L729.744,429.053L735.751,427.136L738.819,423.812L741.887,418.955L742.398,415.248L740.737,410.646L737.797,407.195L733.195,404.255Z" style="fill:none;stroke:black;stroke-width:1px;"/>
        <path d="M653.815,410.519L656.372,410.007L657.906,410.007L659.056,411.285L659.823,412.947L660.206,417.165L660.59,427.264L659.951,429.692L658.545,432.121L655.221,432.76L630.806,433.527L628.633,433.655L626.972,433.144L626.46,431.482L625.821,417.421L625.693,415.12L627.227,413.203L629.784,411.158L632.34,411.285L653.815,410.519Z" style="fill:none;stroke:black;stroke-width:1px;"/>
        <path d="M678.307,407.221L680.991,407.348L683.292,408.755L685.848,410.288L687.51,412.078L689.044,414.762L689.939,418.469L689.555,422.815L688.277,426.139L685.72,428.951L683.036,429.974L680.352,430.613L676.389,431.252L672.81,429.974L670.381,428.568L668.208,426.011L667.186,423.582L666.163,419.875L666.802,417.319L667.569,413.74L668.975,410.8L671.532,408.755L674.6,407.604L678.307,407.221Z" style="fill:none;stroke:black;stroke-width:1px;"/>
    </g>
</svg>
