<?xml version="1.0" encoding="UTF-8" standalone="no"?>
<!DOCTYPE svg PUBLIC "-//W3C//DTD SVG 1.1//EN" "http://www.w3.org/Graphics/SVG/1.1/DTD/svg11.dtd">
<svg width="100%" height="100%" viewBox="0 0 194 209" version="1.1" xmlns="http://www.w3.org/2000/svg" xmlns:xlink="http://www.w3.org/1999/xlink" xml:space="preserve" xmlns:serif="http://www.serif.com/" style="fill-rule:evenodd;clip-rule:evenodd;stroke-linejoin:round;stroke-miterlimit:2;">
    <g transform="matrix(1,0,0,1,-67.3413,-198.983)">
        <g transform="matrix(4.16667,0,0,4.16667,0,0)">
            <g transform="matrix(0,-1,-1,0,37.529,47.7569)">
                <path d="M-4.263,-4.263C-1.908,-4.263 0.001,-2.353 0.001,0.002C0.001,2.356 -1.908,4.263 -4.263,4.263C-6.617,4.263 -8.527,2.356 -8.527,0.002C-8.527,-2.353 -6.617,-4.263 -4.263,-4.263" style="fill:rgb(64,63,65);fill-rule:nonzero;"/>
            </g>
        </g>
        <g transform="matrix(4.16667,0,0,4.16667,0,0)">
            <g transform="matrix(0,-1,-1,0,59.9955,60.1716)">
                <path d="M-2.673,-2.671C-1.196,-2.671 -0.001,-1.477 -0.001,0.001C-0.001,1.477 -1.196,2.673 -2.673,2.673C-4.148,2.673 -5.342,1.477 -5.342,0.001C-5.342,-1.477 -4.148,-2.671 -2.673,-2.671" style="fill:rgb(64,63,65);fill-rule:nonzero;"/>
            </g>
        </g>
        <g transform="matrix(4.16667,0,0,4.16667,0,0)">
            <g transform="matrix(0,-1,-1,0,18.8329,65.7474)">
                <path d="M-2.671,-2.671C-1.196,-2.671 0.001,-1.476 0.001,0C0.001,1.475 -1.196,2.671 -2.671,2.671C-4.146,2.671 -5.343,1.475 -5.343,0C-5.343,-1.476 -4.146,-2.671 -2.671,-2.671" style="fill:rgb(64,63,65);fill-rule:nonzero;"/>
            </g>
        </g>
        <g transform="matrix(4.16667,0,0,4.16667,0,0)">
            <g transform="matrix(0,-1,-1,0,34.0834,92.4773)">
                <path d="M-2.672,-2.672C-1.197,-2.672 0,-1.477 0,-0.001C0,1.475 -1.197,2.672 -2.672,2.672C-4.149,2.672 -5.344,1.475 -5.344,-0.001C-5.344,-1.477 -4.149,-2.672 -2.672,-2.672" style="fill:rgb(64,63,65);fill-rule:nonzero;"/>
            </g>
        </g>
        <g transform="matrix(4.16667,0,0,4.16667,0,0)">
            <g transform="matrix(0,-1,-1,0,47.2036,90.0173)">
                <path d="M-2.673,-2.671C-1.198,-2.671 -0.001,-1.477 -0.001,0C-0.001,1.476 -1.198,2.673 -2.673,2.673C-4.148,2.673 -5.342,1.476 -5.342,0C-5.342,-1.477 -4.148,-2.671 -2.673,-2.671" style="fill:rgb(64,63,65);fill-rule:nonzero;"/>
            </g>
        </g>
        <g transform="matrix(4.16667,0,0,4.16667,0,0)">
            <g transform="matrix(1,0,0,1,31.4239,88.2618)">
                <path d="M0,-31.486L-7.343,-31.486L-7.343,-24.621L-2.62,-27.134C-2.62,-27.134 -1.885,-30.033 0,-31.486M-2.667,-21.8L-7.343,-19.427L-7.343,0L0.218,0C0.652,-4.687 1.012,-14.334 0.385,-17.054C-1.978,-18.859 -2.667,-21.8 -2.667,-21.8M16.67,-22.279C16.05,-19.824 14.854,-18.168 13.521,-16.972C16.087,-15.06 18.567,-11.369 18.567,-7.484L18.567,0L23.979,0L23.979,-22.367C22.277,-21.923 19.538,-21.203 16.67,-22.279M8.317,-13.886C7.15,-14.439 5.715,-14.459 5.715,-14.459L5.715,0L13.318,0L13.318,-6.519C13.318,-11.601 9.419,-13.365 8.317,-13.886M13.92,-31.486C15.038,-30.308 15.911,-29.021 16.417,-27.457C18.939,-25.75 22.22,-26.601 23.979,-26.855L23.979,-31.486L13.92,-31.486Z" style="fill:rgb(205,20,66);fill-rule:nonzero;"/>
            </g>
        </g>
    </g>
</svg>
