<?xml version="1.0" encoding="UTF-8" standalone="no"?>
<!DOCTYPE svg PUBLIC "-//W3C//DTD SVG 1.1//EN" "http://www.w3.org/Graphics/SVG/1.1/DTD/svg11.dtd">
<svg width="100%" height="100%" viewBox="0 0 400 400" version="1.1" xmlns="http://www.w3.org/2000/svg" xmlns:xlink="http://www.w3.org/1999/xlink" xml:space="preserve" xmlns:serif="http://www.serif.com/" style="fill-rule:evenodd;clip-rule:evenodd;stroke-linejoin:round;stroke-miterlimit:2;">
    <g transform="matrix(1,0,0,1,-54.8776,-69.2073)">
        <g transform="matrix(1.02822,0,0,1.03479,-55.9535,52.2937)">
            <g transform="matrix(-0.423317,-0.423317,0.614768,-0.614768,286.809,459.697)">
                <path d="M470.009,231.909C470.009,241.104 459.167,248.57 445.813,248.57L104.238,248.57C90.884,248.57 80.042,241.104 80.042,231.909C80.042,222.713 90.884,215.247 104.238,215.247L445.813,215.247C459.167,215.247 470.009,222.713 470.009,231.909Z"/>
            </g>
            <g transform="matrix(0.440957,0.440957,-0.704461,0.704461,267.224,-50.5009)">
                <path d="M451.221,155.518L212.117,155.518C200.001,141.06 193.623,124.66 193.623,107.966C193.623,55.476 255.479,12.861 331.669,12.861C407.859,12.861 469.715,55.476 469.715,107.966C469.715,124.66 463.337,141.06 451.221,155.518Z" style="fill:rgb(12,0,0);"/>
            </g>
            <g transform="matrix(-0.249775,0.249775,-0.614768,-0.614768,655.131,143.162)">
                <path d="M470.009,231.909C470.009,241.104 451.634,248.57 429.001,248.57L121.05,248.57C98.417,248.57 80.042,241.104 80.042,231.909C80.042,222.713 98.417,215.247 121.05,215.247L429.001,215.247C451.634,215.247 470.009,222.713 470.009,231.909Z" style="fill:rgb(12,0,0);"/>
            </g>
        </g>
        <g transform="matrix(1.02822,0,0,1.03479,44.3939,-48.6949)">
            <g transform="matrix(-0.423317,-0.423317,0.614768,-0.614768,171.204,575.302)">
                <path d="M470.009,231.909C470.009,241.104 459.167,248.57 445.813,248.57L104.238,248.57C90.884,248.57 80.042,241.104 80.042,231.909C80.042,222.713 90.884,215.247 104.238,215.247L445.813,215.247C459.167,215.247 470.009,222.713 470.009,231.909Z" style="fill:rgb(12,0,0);"/>
            </g>
            <g transform="matrix(-0.216719,0.216719,-0.614768,-0.614768,453.376,402.183)">
                <path d="M470.009,231.909C470.009,241.104 448.831,248.57 422.746,248.57L127.305,248.57C101.22,248.57 80.042,241.104 80.042,231.909C80.042,222.713 101.22,215.247 127.305,215.247L422.746,215.247C448.831,215.247 470.009,222.713 470.009,231.909Z" style="fill:rgb(12,0,0);"/>
            </g>
            <g transform="matrix(-0.249775,0.249775,-0.614768,-0.614768,274.402,521.42)">
                <path d="M470.009,231.909C470.009,241.104 451.634,248.57 429.001,248.57L121.05,248.57C98.417,248.57 80.042,241.104 80.042,231.909C80.042,222.713 98.417,215.247 121.05,215.247L429.001,215.247C451.634,215.247 470.009,222.713 470.009,231.909Z" style="fill:rgb(12,0,0);"/>
            </g>
            <g transform="matrix(-0.440957,-0.440957,0.704461,-0.704461,241.43,564.525)">
                <path d="M451.221,155.518L212.117,155.518C200.001,141.06 193.623,124.66 193.623,107.966C193.623,55.476 255.479,12.861 331.669,12.861C407.859,12.861 469.715,55.476 469.715,107.966C469.715,124.66 463.337,141.06 451.221,155.518Z" style="fill:rgb(12,0,0);"/>
            </g>
            <g transform="matrix(-0.216719,0.216719,-0.614768,-0.614768,395.716,343.809)">
                <path d="M470.009,231.909C470.009,241.104 448.831,248.57 422.746,248.57L127.305,248.57C101.22,248.57 80.042,241.104 80.042,231.909C80.042,222.713 101.22,215.247 127.305,215.247L422.746,215.247C448.831,215.247 470.009,222.713 470.009,231.909Z" style="fill:rgb(12,0,0);"/>
            </g>
        </g>
    </g>
</svg>
